# xmcd CD database file
#
# Track frame offsets:
#	150
#	15663
#	33586
#	53915
#	74616
#	93124
#	110507
#	126270
#	143535
#	161598
#	183258
#	206926
#	226057
#	242790
#	257217
#	275019
#
# Disc length: 3888 seconds
#
# Revision: 0
# Processed by: cddbd v1.5.1PL0 Copyright (c) Steve Scherf et al.
# Submitted via: CDex 1.51
#
DISCID=e60f2e10
DTITLE=生稲晃子 - Myこれ!クション 生稲晃子BEST
DYEAR=2002
DGENRE=JPop
TTITLE0=麦わらでダンス
TTITLE1=夢に逢いたい
TTITLE2=Virgin少年に接吻を
TTITLE3=Shadow of Plam Tree
TTITLE4=ファンファーレが聴こえる
TTITLE5=わたしだけのリバティー
TTITLE6=Japanese Girl
TTITLE7=夕映えの橋
TTITLE8=オ・メ・デ・ト・ウ！
TTITLE9=あした元気になぁれ
TTITLE10=忘れたいのに
TTITLE11=朝霧の瞳
TTITLE12=日曜日はいらない
TTITLE13=海になりたい
TTITLE14=LUNA Great
TTITLE15=ファンキー ララバイ
EXTD=YEAR: 2002
EXTT0=
EXTT1=
EXTT2=
EXTT3=
EXTT4=
EXTT5=
EXTT6=
EXTT7=
EXTT8=
EXTT9=
EXTT10=
EXTT11=
EXTT12=
EXTT13=
EXTT14=
EXTT15=
PLAYORDER=
